<?xml version="1.0" encoding="UTF-8"?>
<svg xmlns="http://www.w3.org/2000/svg" width="382" height="552" viewBox="0 0 382 552" fill="none">
  <path d="M381.015 551V509.867C378.74 538.081 374.171 548.305 356.863 551H381.015Z" fill="#65D9FF"/>
  <path d="M0.984375 1V1.84811V32.3801C4.24654 12.0648 9.91564 5.53991 25.6297 1H0.984375Z" fill="#65D9FF"/>
  <path d="M25.6297 1H359.82L381.015 26.0193V509.867M25.6297 1H0.984375V1.84811V32.3801M25.6297 1C9.91564 5.53991 4.24654 12.0648 0.984375 32.3801M0.984375 32.3801V530.221L18.2361 551H356.863M381.015 509.867V551H356.863M381.015 509.867C378.74 538.081 374.171 548.305 356.863 551" stroke="#65D9FF"/>
</svg>