<svg width="24" height="24" viewBox="0 0 24 24" fill="none" xmlns="http://www.w3.org/2000/svg">
<g id="Send_fill">
<path id="Subtract" fill-rule="evenodd" clip-rule="evenodd" d="M9.93942 12.6463L7.69217 11.8972L7.69217 11.8972L7.69216 11.8972C5.33896 11.1128 4.16235 10.7206 4.16235 9.99985C4.16235 9.27909 5.33896 8.88689 7.69218 8.10249L16.2053 5.26476C17.8611 4.71283 18.689 4.43687 19.126 4.87388C19.5631 5.3109 19.2871 6.1388 18.7352 7.79459L15.8974 16.3078L15.8974 16.3078L15.8974 16.3078C15.113 18.661 14.7208 19.8376 14.0001 19.8376C13.2793 19.8376 12.8871 18.661 12.1027 16.3078L11.3536 14.0605L15.7072 9.70696C16.0977 9.31643 16.0977 8.68327 15.7072 8.29275C15.3167 7.90222 14.6835 7.90222 14.293 8.29275L9.93942 12.6463Z" fill="#222222"/>
</g>
</svg>
