<?xml version="1.0" encoding="UTF-8" standalone="no"?>
<!DOCTYPE svg PUBLIC "-//W3C//DTD SVG 1.1//EN" "http://www.w3.org/Graphics/SVG/1.1/DTD/svg11.dtd">
<svg width="704.00" height="669.00" viewBox="0.00 0.00 704.00 669.00" xmlns="http://www.w3.org/2000/svg" xmlns:xlink="http://www.w3.org/1999/xlink">
<g stroke-linecap="round" id="레이어_2">
<path d="M561.82,37.51 C564.93,37.21 572.50,37.82 576.03,38.66 C579.89,39.62 585.58,42.17 588.86,44.42 C591.83,46.49 597.33,51.74 599.17,54.26 C600.98,56.79 604.24,63.67 605.27,67.14 C606.38,70.96 607.01,77.16 606.71,81.13 C606.40,84.74 604.60,92.13 603.34,94.98 C602.05,97.81 597.73,104.07 595.24,106.70 C592.47,109.57 587.42,113.22 583.83,114.94 C580.55,116.47 573.25,118.61 570.16,118.94 C567.06,119.25 559.48,118.63 555.95,117.79 C552.09,116.83 546.40,114.28 543.12,112.03 C540.15,109.96 534.65,104.71 532.81,102.19 C531.00,99.66 527.74,92.79 526.71,89.32 C525.61,85.49 524.97,79.29 525.28,75.32 C525.59,71.71 527.38,64.32 528.65,61.48 C529.93,58.64 534.26,52.38 536.75,49.75 C539.51,46.88 544.56,43.24 548.15,41.51 C551.43,39.98 558.73,37.84 561.82,37.51 Z" fill="none" stroke="currentColor" stroke-width="40.00" stroke-opacity="1.00" stroke-linejoin="round"/>
<path d="M624.82,518.08 C627.91,517.80 635.22,518.66 638.62,519.71 C641.91,520.77 647.90,524.43 650.51,526.76 C653.35,529.37 656.96,534.42 658.50,537.96 C659.87,541.18 661.39,548.03 661.32,551.49 C661.21,555.04 659.66,562.24 658.39,565.07 C657.09,567.88 652.69,573.78 650.08,576.20 C647.52,578.52 641.36,581.88 638.03,582.97 C634.35,584.13 628.18,584.73 624.34,584.29 C620.86,583.86 614.17,581.76 611.21,579.97 C608.19,578.10 602.73,573.16 600.92,570.64 C599.13,568.11 596.22,561.35 595.43,557.88 C594.70,554.50 594.88,547.49 595.60,544.06 C596.43,540.29 599.00,534.65 601.29,531.54 C603.40,528.75 608.57,524.00 611.60,522.33 C614.73,520.65 621.74,518.40 624.82,518.08 Z" fill="none" stroke="currentColor" stroke-width="40.00" stroke-opacity="1.00" stroke-linejoin="round"/>
<path d="M176.63,581.09 C179.53,581.10 186.35,582.93 188.87,584.37 C191.37,585.83 196.37,590.83 197.84,593.33 C199.27,595.85 201.10,602.68 201.12,605.58 C201.10,608.48 199.27,615.30 197.84,617.82 C196.37,620.32 191.37,625.32 188.87,626.78 C186.35,628.22 179.53,630.05 176.63,630.07 C173.73,630.05 166.90,628.22 164.38,626.78 C161.88,625.32 156.88,620.32 155.42,617.82 C153.98,615.30 152.16,608.48 152.14,605.58 C152.16,602.68 153.98,595.85 155.42,593.33 C156.88,590.83 161.88,585.83 164.38,584.37 C166.90,582.93 173.73,581.10 176.63,581.09 Z" fill="none" stroke="currentColor" stroke-width="40.00" stroke-opacity="1.00" stroke-linejoin="round"/>
<path d="M219.90,473.59 Q294.48,574.30 378.62,493.99" fill="none" stroke="currentColor" stroke-width="35.00" stroke-opacity="1.00" stroke-linejoin="round"/>
<path d="M293.48,234.42 C297.42,222.54 304.89,199.90 307.90,193.73 C309.89,189.69 314.57,182.09 317.26,178.53 C322.25,171.99 333.84,161.58 340.33,157.31 C346.83,153.07 362.22,145.71 369.78,143.40 C377.64,141.05 393.66,139.03 401.93,139.36 C409.40,139.69 424.83,142.63 432.67,145.23 C440.49,147.85 456.46,155.36 463.36,159.61 C470.22,163.87 482.13,173.69 486.37,178.58 C489.38,182.08 494.55,189.68 496.64,193.64 C500.82,201.69 503.55,212.60 506.28,226.85 C507.44,232.88 509.02,241.05 509.44,243.19" fill="none" stroke="currentColor" stroke-width="40.00" stroke-opacity="1.00" stroke-linejoin="miter"/>
<path d="M378.26,496.33 C398.37,513.34 406.75,519.79 414.39,523.31 C418.36,525.10 425.29,527.19 429.23,527.82 C432.89,528.37 440.34,528.53 444.11,528.14 C450.62,527.44 466.69,522.89 473.77,519.87 C480.84,516.82 494.21,508.90 500.60,503.99 C504.07,501.29 509.46,496.21 511.86,493.34 C514.23,490.47 518.32,484.03 519.65,481.07 C521.27,477.41 523.55,469.10 524.12,464.78 C524.79,459.41 524.05,433.26 524.03,432.19" fill="none" stroke="currentColor" stroke-width="40.00" stroke-opacity="1.00" stroke-linejoin="miter"/>
<path d="M513.76,249.35 C526.24,250.23 550.05,251.87 556.56,253.42 C560.83,254.46 568.88,257.48 572.67,259.45 C576.42,261.44 582.63,265.75 585.56,268.29 C590.95,273.01 600.39,284.98 604.47,292.26 C608.74,299.96 614.12,315.15 615.31,322.95 C615.89,326.85 616.29,334.67 616.11,338.66 C615.74,346.20 612.18,361.57 609.00,369.34 C606.01,376.56 596.01,393.81 592.67,399.06 C588.53,405.43 579.49,417.29 574.30,422.03 C572.15,423.97 567.67,427.13 565.64,428.15 C562.52,429.67 549.89,431.38 547.87,431.67" fill="none" stroke="currentColor" stroke-width="40.00" stroke-opacity="1.00" stroke-linejoin="miter"/>
<path d="M21.34,410.47 L177.80,405.90" fill="none" stroke="currentColor" stroke-width="42.00" stroke-opacity="1.00" stroke-linejoin="round"/>
<path d="M93.98,473.46 L217.93,469.90" fill="none" stroke="currentColor" stroke-width="42.00" stroke-opacity="1.00" stroke-linejoin="round"/>
<path d="M292.77,235.77 Q194.32,239.40 175.15,342.00" fill="none" stroke="currentColor" stroke-width="40.00" stroke-opacity="1.00" stroke-linejoin="round"/>
<path d="M521.70,427.08 C522.35,427.91 523.77,428.44 526.50,428.76 C528.99,429.05 542.81,430.02 545.41,430.18" fill="none" stroke="currentColor" stroke-width="38.00" stroke-opacity="1.00" stroke-linejoin="round"/>
<path d="M63.73,346.43 L233.27,344.89" fill="none" stroke="currentColor" stroke-width="42.00" stroke-opacity="1.00" stroke-linejoin="round"/>
<path d="M199.42,142.21 L201.05,142.21" fill="none" stroke="currentColor" stroke-width="67.00" stroke-opacity="1.00" stroke-linejoin="round"/>
</g>
</svg>
